<svg width="82" height="82" viewBox="0 0 82 82" fill="none" xmlns="http://www.w3.org/2000/svg">
<path d="M1.64603 81.4061C0.872271 81.4061 0.21135 80.858 0.04209 80.0682C-0.1312 79.2742 0.23956 78.5408 0.989141 78.2023C7.69104 75.1516 9.58111 72.391 9.64156 71.2424C9.64156 71.1135 9.6335 70.6984 8.76705 70.6984C7.99732 70.6984 6.9334 71.0571 6.05889 71.6092L4.24539 72.7416C4.07613 72.8464 3.88672 72.9028 3.69328 72.9028C3.34266 72.9028 3.00414 72.7174 2.81473 72.4152C2.62129 72.1129 2.60114 71.7543 2.75428 71.4238C4.44286 67.6114 8.77511 59.2612 10.7821 57.0891C12.5996 55.2715 15.0055 54.2761 17.5726 54.2761C18.6083 54.2761 19.6279 54.4413 20.6072 54.7678L22.6907 52.5029L22.2192 51.6808C21.9371 51.1891 21.8444 50.6088 21.9613 50.0567C22.0137 49.8028 22.0862 49.4844 22.1709 49.1056C21.8202 49.0855 21.4696 49.0774 21.119 49.0774C16.4765 49.0774 12.0434 50.7418 9.25468 53.5306C8.57361 54.2116 7.94896 54.9572 7.40088 55.739C7.10266 56.1662 6.61503 56.4201 6.09516 56.4201C5.67201 56.4201 5.26901 56.2549 4.97079 55.9526L2.77846 53.4459C2.448 53.0671 2.2465 52.5916 2.21023 52.1039C1.81126 46.4861 3.86657 40.9811 7.85224 36.9955C11.4551 33.3926 16.4765 31.3252 21.6308 31.3252C23.8715 31.3252 26.0679 31.7041 28.1594 32.4536C28.9937 30.7409 29.8883 29.0644 30.8192 27.4605C33.467 22.9066 36.5016 18.8282 39.8344 15.3382C43.9853 10.9939 49.059 7.27416 54.5237 4.57809C54.5479 4.55794 54.5761 4.53779 54.6084 4.52167L55.495 4.10658C61.0725 1.49513 66.9402 0 71.5989 0C72.7716 0 73.8637 0.0967201 74.839 0.2821C76.5195 0.604501 77.8615 1.19288 78.8287 2.03515L78.9254 2.11575C78.9899 2.1762 79.0302 2.2165 79.0705 2.2568L78.8126 2.57114L79.1189 2.30919C79.1592 2.34949 79.2035 2.39382 79.2438 2.43815C79.2841 2.48248 79.3083 2.51069 79.3284 2.53487C82.6774 6.3795 81.8109 16.1966 77.2772 25.8847L76.858 26.7794C76.8419 26.8116 76.8258 26.8398 76.8016 26.868C74.1055 32.3247 70.3858 37.4025 66.0415 41.5494C62.5434 44.8902 58.4651 47.9248 53.9192 50.5685C52.3193 51.4994 50.6388 52.3941 48.9261 53.2283C51.4529 60.297 49.6877 68.232 44.3842 73.5355C40.7169 77.2069 35.8447 79.2259 30.6701 79.2259C30.2067 79.2259 29.7392 79.2098 29.2758 79.1775C28.7922 79.1453 28.3166 78.9398 27.9338 78.6093L25.4472 76.4371C25.0926 76.0825 24.9274 75.6231 24.9677 75.1516C25.008 74.68 25.2538 74.2569 25.6407 73.9869C26.4265 73.4388 27.1681 72.8141 27.8491 72.1331C30.8716 69.1106 32.5441 64.198 32.2741 59.2209C31.8953 59.3096 31.5769 59.3781 31.319 59.4345C31.1658 59.4668 31.0046 59.4829 30.8475 59.4829C30.4485 59.4829 30.0535 59.3781 29.707 59.1806L28.901 58.7212L26.624 60.8168C27.4985 63.4524 27.2446 66.0397 25.8744 68.5101C22.7834 74.0755 14.0988 78.7624 2.045 81.3658C1.91201 81.394 1.77499 81.4101 1.642 81.4101L1.64603 81.4061ZM29.5176 75.9979C29.9004 76.0261 30.2873 76.0381 30.6701 76.0381C34.9943 76.0381 39.0646 74.3496 42.1355 71.2827C46.4919 66.9263 47.9992 60.4098 46.0285 54.5703C41.7567 56.4483 37.9644 57.6774 35.4135 58.4028C35.627 61.1231 35.6593 68.8285 30.1059 74.3818C29.7392 74.7486 29.3564 75.1032 28.9614 75.4417L29.5176 75.9979ZM8.68645 67.3495C10.0123 67.3495 11.2294 67.8371 12.0314 68.6874C12.7205 69.4209 13.0509 70.3679 12.9824 71.4238C12.918 72.6409 12.3578 73.8902 11.31 75.1556C17.4195 72.794 19.8214 70.3921 21.9573 68.2562C23.2388 66.9747 23.8876 65.2176 23.7708 63.4323L19.4869 67.3736C19.0597 67.7686 18.5035 67.9822 17.9232 67.9822C17.3066 67.9822 16.7263 67.7404 16.2911 67.3051L14.0947 65.1088C13.2162 64.2302 13.188 62.8238 14.0262 61.913L17.9595 57.6371C17.8265 57.6291 17.6935 57.6251 17.5605 57.6251C15.8921 57.6251 14.3244 58.2699 13.1517 59.4466C12.523 60.0753 10.3508 63.7386 8.44868 67.3575C8.52525 67.3575 8.60585 67.3535 8.68242 67.3535L8.68645 67.3495ZM17.9514 64.464L36.5217 47.3767C35.6432 46.599 34.8049 45.7607 34.0271 44.8822L16.9399 63.4524L17.9514 64.464ZM34.0876 40.8723C34.5833 40.8723 35.0427 41.098 35.3449 41.4889C36.6708 43.1976 38.2103 44.7331 39.919 46.063C40.2898 46.3491 40.5114 46.7843 40.5316 47.2559C40.5517 47.7233 40.3623 48.1747 40.0197 48.4931L31.7985 56.0534C34.8976 55.3078 41.6035 53.4177 48.9704 49.6416C45.0452 48.2029 41.4262 45.8937 38.4601 42.9236C35.49 39.9535 33.1808 36.3386 31.7461 32.4133C27.9458 39.8205 26.0598 46.5667 25.3223 49.6416L32.9189 41.3841C33.2211 41.0577 33.6483 40.8683 34.0916 40.8683L34.0876 40.8723ZM5.94202 52.4263C6.28054 52.0314 6.63518 51.6486 7.00191 51.2818C11.6848 46.599 17.8547 45.8977 21.119 45.8977C21.7437 45.8977 22.3724 45.9219 22.9849 45.9743C23.7103 43.4273 24.9395 39.6351 26.8174 35.3593C25.149 34.7951 23.4081 34.513 21.6308 34.513C17.3187 34.513 13.1195 36.2418 10.105 39.2523C6.7722 42.5851 5.05945 47.1753 5.38991 51.8702L5.94605 52.4263H5.94202ZM33.8941 28.5244C35.0024 33.1186 37.3599 37.3179 40.7129 40.6749C43.9611 43.923 48.0153 46.2443 52.4443 47.3929C53.5807 46.1516 54.0321 44.5235 53.6492 43.0002C53.2906 41.5615 52.0332 39.9615 49.591 39.8003C47.6244 39.6714 46.1454 38.6437 45.428 36.9149C44.3319 34.2712 45.3031 30.4467 47.7896 27.6096C49.7603 25.3568 49.0026 22.3262 47.4672 20.4644C46.3469 19.1063 44.8316 18.3325 43.3082 18.3325C42.47 18.3325 41.6237 18.5622 40.7895 19.0095C38.2868 21.8305 35.9696 25.0304 33.8941 28.5244ZM44.5051 15.2334C46.5564 15.5397 48.4505 16.656 49.9255 18.4373C51.2191 20.0049 52.009 21.9313 52.142 23.8657C52.2951 26.058 51.6181 28.0811 50.1915 29.7092C48.7568 31.3454 47.6848 34.0334 48.378 35.6978C48.6238 36.2902 49.0631 36.5723 49.8086 36.6247C53.2301 36.8504 55.9544 39.0508 56.7483 42.2304C56.9659 43.1049 57.0304 43.9956 56.9337 44.8781C59.4444 43.1251 61.7697 41.235 63.8492 39.2482C67.722 35.5487 71.079 31.0431 73.5776 26.2031C69.3139 24.7926 65.3886 22.3746 62.2049 19.1909C59.0212 16.0072 56.5992 12.082 55.1887 7.81821C51.3078 9.81709 47.7211 12.3117 44.5051 15.2415V15.2334ZM58.0863 6.43592C59.3195 10.3732 61.5158 13.9962 64.4537 16.9301C67.3875 19.8639 71.0105 22.0603 74.9478 23.2975C74.972 23.2451 75.1251 22.8824 75.1251 22.8824C75.2339 22.6204 75.3428 22.3585 75.4475 22.0965L75.5241 21.895C75.6007 21.6976 75.6813 21.5001 75.7538 21.3026L75.8667 20.9963C75.9311 20.8271 75.9875 20.6659 76.044 20.5087C76.044 20.5087 76.2737 19.8558 76.318 19.7188C76.318 19.7188 76.5316 19.0619 76.5759 18.933C76.5759 18.933 76.7734 18.2922 76.8137 18.1471L76.9145 17.7925C76.9548 17.6514 76.9951 17.5104 77.0313 17.3693L77.128 17.0147C77.1643 16.8736 77.2006 16.7326 77.2368 16.5956L77.3255 16.2409C77.3577 16.1039 77.39 15.9629 77.4222 15.8258L77.4988 15.4793C77.527 15.3422 77.5552 15.2052 77.5834 15.0682L77.6519 14.7256C77.6761 14.6007 77.789 13.9841 77.789 13.9841C77.8131 13.839 77.8373 13.694 77.8575 13.5489L77.9058 13.2507C77.926 13.1016 77.9461 12.9565 77.9663 12.8074L78.0026 12.5293C78.0308 12.2915 78.0549 12.0578 78.0791 11.824C78.3814 8.54764 77.9461 5.79918 76.9427 4.65063L76.8943 4.59421C76.8943 4.59421 76.7815 4.48137 76.7774 4.48137L76.717 4.42898C75.8949 3.71164 74.1821 3.26833 72.0261 3.21594C71.9052 3.21594 71.7762 3.21191 71.6513 3.21191C71.6513 3.21191 71.5868 3.21191 71.5828 3.21191L71.5626 2.80891V3.21191C68.7134 3.224 65.3564 3.8406 61.8584 4.99721C61.6851 5.05363 61.544 5.10199 61.403 5.15035L60.9838 5.29543C60.9838 5.29543 60.2786 5.55335 60.1537 5.59768L59.8675 5.70649C59.6781 5.77903 59.5048 5.84754 59.3315 5.91605L59.0373 6.03695C58.8439 6.11352 58.6827 6.18203 58.5175 6.25054L58.0782 6.43995L58.0863 6.43592ZM60.8428 35.6575C59.0817 35.6575 57.4294 34.9724 56.1841 33.7311C54.9429 32.4899 54.2578 30.8336 54.2578 29.0725C54.2578 27.3113 54.9429 25.659 56.1841 24.4138C57.4253 23.1725 59.0817 22.4874 60.8428 22.4874C62.6039 22.4874 64.2602 23.1725 65.5015 24.4138C66.7427 25.655 67.4278 27.3113 67.4278 29.0725C67.4278 30.8336 66.7427 32.4859 65.5015 33.7311C64.2602 34.9724 62.6039 35.6575 60.8428 35.6575ZM60.8428 25.6752C59.932 25.6752 59.0776 26.0298 58.4369 26.6706C57.111 27.9965 57.111 30.1525 58.4369 31.4824C59.0776 32.1232 59.932 32.4778 60.8428 32.4778C61.7536 32.4778 62.6079 32.1232 63.2487 31.4824C64.5746 30.1565 64.5746 28.0005 63.2487 26.6706C62.6079 26.0298 61.7536 25.6752 60.8428 25.6752Z" fill="#6FD08C"/>
</svg>
