<svg width="40" height="40" viewBox="0 0 40 40" fill="none" xmlns="http://www.w3.org/2000/svg">
<path d="M30.0666 22.5833C29.3666 23.2666 28.9666 24.25 29.0666 25.3C29.2166 27.1 30.8666 28.4166 32.6666 28.4166H35.8333V30.4C35.8333 33.85 33.0166 36.6666 29.5666 36.6666H12.7166C13.2333 36.2333 13.6833 35.7 14.0333 35.1C14.65 34.1 15 32.9166 15 31.6666C14.9998 30.4107 14.6448 29.1804 13.9759 28.1174C13.307 27.0545 12.3514 26.2021 11.2191 25.6587C10.0869 25.1152 8.82411 24.9027 7.57636 25.0456C6.3286 25.1886 5.14662 25.6812 4.16663 26.4666V19.1833C4.16663 15.7333 6.98329 12.9166 10.4333 12.9166H29.5666C33.0166 12.9166 35.8333 15.7333 35.8333 19.1833V21.5833H32.4666C31.5333 21.5833 30.6833 21.95 30.0666 22.5833Z" stroke="#6AC886" stroke-width="1.5" stroke-linecap="round" stroke-linejoin="round"/>
<path d="M4.16663 20.6833V13.0666C4.16663 11.0833 5.38329 9.31663 7.23329 8.61663L20.4666 3.61663C20.9461 3.43594 21.4623 3.37431 21.9708 3.43701C22.4794 3.49971 22.9651 3.68489 23.3863 3.97663C23.8075 4.26838 24.1517 4.65798 24.3892 5.112C24.6267 5.56602 24.7505 6.0709 24.75 6.5833V12.9166M11.6666 20H23.3333M37.5983 23.2833V26.7166C37.5983 27.6333 36.865 28.3833 35.9316 28.4166H32.665C30.865 28.4166 29.215 27.1 29.065 25.3C28.965 24.25 29.365 23.2666 30.065 22.5833C30.6816 21.95 31.5316 21.5833 32.465 21.5833H35.9316C36.865 21.6166 37.5983 22.3666 37.5983 23.2833Z" stroke="#6AC886" stroke-width="1.5" stroke-linecap="round" stroke-linejoin="round"/>
<path d="M15 31.6666C15 32.9166 14.65 34.1 14.0333 35.1C13.6833 35.7 13.2333 36.2333 12.7166 36.6666C11.55 37.7166 10.0166 38.3333 8.33331 38.3333C7.18424 38.3357 6.05437 38.0388 5.05491 37.4718C4.05545 36.9049 3.22086 36.0874 2.63331 35.1C1.99887 34.0673 1.66418 32.8786 1.66664 31.6666C1.66664 29.5666 2.63331 27.6833 4.16664 26.4666C5.14663 25.6812 6.32861 25.1886 7.57637 25.0456C8.82413 24.9027 10.0869 25.1152 11.2191 25.6587C12.3514 26.2021 13.307 27.0545 13.9759 28.1174C14.6449 29.1804 14.9998 30.4107 15 31.6666Z" stroke="#6AC886" stroke-width="1.5" stroke-miterlimit="10" stroke-linecap="round" stroke-linejoin="round"/>
<path d="M5.73499 31.6667L7.38499 33.3167L10.935 30.0333" stroke="#6AC886" stroke-width="1.5" stroke-linecap="round" stroke-linejoin="round"/>
</svg>
